<svg width="8" height="10" viewBox="0 0 8 10" fill="none" xmlns="http://www.w3.org/2000/svg">
<path d="M2.94737 0.789474C2.36601 0.789474 1.89473 1.26075 1.89473 1.84211V7.10526C1.89473 7.68662 2.36601 8.15789 2.94737 8.15789H6.10526C6.68661 8.15789 7.15789 7.68662 7.15789 7.10526V1.84211C7.15789 1.26075 6.68661 0.789474 6.10526 0.789474H2.94737ZM2.42105 1.84211C2.42105 1.55143 2.65669 1.31579 2.94737 1.31579H6.10526C6.39594 1.31579 6.63158 1.55143 6.63158 1.84211V7.10526C6.63158 7.39594 6.39594 7.63158 6.10526 7.63158H2.94737C2.65669 7.63158 2.42105 7.39594 2.42105 7.10526V1.84211ZM0.842102 2.89474C0.842102 2.50512 1.05379 2.16494 1.36842 1.98294V7.36843C1.36842 8.09512 1.95752 8.68422 2.68421 8.68422H5.96444C5.78243 8.99885 5.44225 9.21053 5.05263 9.21053H2.68421C1.66684 9.21053 0.842102 8.3858 0.842102 7.36843V2.89474Z" fill="white"/>
</svg>
