<svg width="10" height="10" viewBox="0 0 10 10" fill="none" xmlns="http://www.w3.org/2000/svg">
<path d="M1.3504 4.5C1.62654 2.48409 3.48462 1.07374 5.50053 1.34988C6.52303 1.48995 7.3894 2.0366 7.95953 2.80509L8.02604 2.89474H6.31584C6.1705 2.89474 6.05268 3.01255 6.05268 3.15789C6.05268 3.30323 6.1705 3.42105 6.31584 3.42105H8.4211C8.56644 3.42105 8.68426 3.30323 8.68426 3.15789V1.05263C8.68426 0.907292 8.56644 0.789472 8.4211 0.789472C8.27576 0.789472 8.15794 0.907292 8.15794 1.05263V2.21438C7.51357 1.48342 6.61332 0.971087 5.57196 0.828437C3.26806 0.512843 1.14455 2.12468 0.828952 4.42857C0.513358 6.73247 2.12519 8.85598 4.42909 9.17158C6.73298 9.48717 8.8565 7.87533 9.17209 5.57144C9.21112 5.28656 9.22067 5.00416 9.20299 4.72743C9.19373 4.58238 9.06864 4.47232 8.92359 4.48158C8.77855 4.49084 8.66848 4.61593 8.67775 4.76098C8.6932 5.00288 8.68488 5.2501 8.65065 5.50001C8.3745 7.51592 6.51642 8.92628 4.50052 8.65013C2.48461 8.37399 1.07425 6.51591 1.3504 4.5Z" fill="#FAFAFA"/>
</svg>
