<svg width="8" height="10" viewBox="0 0 8 10" fill="none" xmlns="http://www.w3.org/2000/svg">
<path d="M4.02734 0.944361C4.20592 0.429996 4.88633 0.193011 5.30676 0.633603C5.39236 0.723301 5.47792 0.820224 5.53555 0.906657C5.70415 1.15956 5.77499 1.4926 5.80094 1.81701C5.82739 2.14761 5.80948 2.50241 5.77567 2.8236C5.74173 3.14603 5.69096 3.44189 5.64884 3.65672C5.64701 3.66603 5.6452 3.6752 5.64341 3.68421H6.10841C7.09352 3.68421 7.83811 4.57639 7.66189 5.54561L7.30192 7.52545C7.0535 8.89174 5.68829 9.75213 4.34853 9.38674L1.4013 8.58295C0.920476 8.45182 0.555009 8.06028 0.457268 7.57157L0.27146 6.64254C0.125291 5.91169 0.684146 5.29602 1.27843 5.06111C1.44821 4.994 1.60175 4.90883 1.7209 4.80314C2.61884 4.00655 2.94441 3.36993 3.50212 2.25103C3.68861 1.87687 3.88001 1.36871 4.02734 0.944361ZM5.0613 3.88348L5.0615 3.88267L5.06245 3.87881L5.0664 3.86244C5.0699 3.84778 5.07506 3.82581 5.08149 3.79733C5.09437 3.74036 5.11234 3.65753 5.13236 3.55545C5.17247 3.35087 5.22039 3.07107 5.25224 2.7685C5.28422 2.4647 5.2992 2.14516 5.27631 1.85898C5.25292 1.5666 5.19218 1.34044 5.09762 1.1986C5.06652 1.15195 5.00727 1.08212 4.92599 0.996952C4.8213 0.887242 4.59544 0.912779 4.52454 1.11699C4.37583 1.54531 4.17545 2.07997 3.97316 2.48581C3.41165 3.61236 3.04907 4.32846 2.07017 5.19686C1.89105 5.35576 1.67829 5.469 1.4719 5.55058C1.00856 5.73373 0.710693 6.155 0.787555 6.53932L0.973363 7.46836C1.03201 7.76158 1.25129 7.9965 1.53978 8.07518L4.48701 8.87897C5.52904 9.16316 6.59088 8.49397 6.78409 7.4313L7.14406 5.45146C7.26154 4.80531 6.76515 4.21053 6.10841 4.21053H5.31659C5.23555 4.21053 5.15903 4.17319 5.10916 4.10932C5.05931 4.04546 5.04167 3.96208 5.0613 3.88348C5.0613 3.88346 5.06129 3.8835 5.0613 3.88348Z" fill="white"/>
</svg>
