<svg width="8" height="10" viewBox="0 0 8 10" fill="none" xmlns="http://www.w3.org/2000/svg">
<path d="M4.02734 9.05564C4.20592 9.57 4.88633 9.80699 5.30676 9.3664C5.39236 9.2767 5.47792 9.17978 5.53555 9.09334C5.70415 8.84044 5.77499 8.5074 5.80094 8.18299C5.82739 7.85239 5.80948 7.49759 5.77567 7.1764C5.74173 6.85397 5.69096 6.55811 5.64884 6.34328C5.64701 6.33397 5.6452 6.3248 5.64341 6.31579H6.10841C7.09352 6.31579 7.83811 5.42361 7.66189 4.45439L7.30192 2.47455C7.0535 1.10826 5.68829 0.24787 4.34853 0.613258L1.4013 1.41705C0.920476 1.54818 0.555009 1.93972 0.457268 2.42843L0.27146 3.35747C0.125291 4.08831 0.684146 4.70398 1.27843 4.93889C1.44821 5.006 1.60175 5.09117 1.7209 5.19686C2.61884 5.99345 2.94441 6.63007 3.50212 7.74897C3.68861 8.12313 3.88001 8.63129 4.02734 9.05564ZM5.0613 6.11652L5.0615 6.11733L5.06245 6.12119L5.0664 6.13756C5.0699 6.15222 5.07506 6.17419 5.08149 6.20267C5.09437 6.25964 5.11234 6.34247 5.13236 6.44455C5.17247 6.64913 5.22039 6.92893 5.25224 7.2315C5.28422 7.5353 5.2992 7.85484 5.27631 8.14102C5.25292 8.4334 5.19218 8.65956 5.09762 8.8014C5.06652 8.84805 5.00727 8.91788 4.92599 9.00305C4.8213 9.11276 4.59544 9.08722 4.52454 8.88301C4.37583 8.45469 4.17545 7.92003 3.97316 7.51419C3.41165 6.38764 3.04907 5.67154 2.07017 4.80314C1.89105 4.64424 1.67829 4.531 1.4719 4.44942C1.00856 4.26627 0.710693 3.845 0.787555 3.46068L0.973363 2.53165C1.03201 2.23842 1.25129 2.0035 1.53978 1.92482L4.48701 1.12103C5.52904 0.836837 6.59088 1.50603 6.78409 2.5687L7.14406 4.54854C7.26154 5.19469 6.76515 5.78947 6.10841 5.78947H5.31659C5.23555 5.78947 5.15903 5.82681 5.10916 5.89068C5.05931 5.95454 5.04167 6.03792 5.0613 6.11652C5.0613 6.11654 5.06129 6.1165 5.0613 6.11652Z" fill="white"/>
</svg>
